<svg width="670" height="280" viewBox="0 0 670 280" fill="none" xmlns="http://www.w3.org/2000/svg">
<g clip-path="url(#clip0_1084_324)">
<path d="M199.327 230.543C197.024 247.681 188.554 263.361 179.518 278.465C179.219 278.979 178.912 279.486 178.597 280H84.6834C82.784 279.532 80.9092 279.018 79.0422 278.465C68.4349 275.398 58.4209 270.72 49.3893 264.612C14.8386 240.974 1.54349 196.306 7.54859 156.282C11.2826 131.415 22.775 106.027 45.1541 92.6344C56.9701 85.5506 72.148 83.2481 85.7501 85.8806C86.1061 85.942 86.4616 86.0187 86.8251 86.0878C98.5279 88.5898 108.954 94.8064 114.886 104.822C125.554 122.82 119.202 145.115 113.957 165.146C108.727 185.178 105.89 209.154 121.069 223.928C116.058 209.921 121.004 193.213 132.974 183.742C142.017 176.597 154.609 173.919 166.094 176.137C167.193 176.359 168.276 176.612 169.343 176.919C171.921 177.636 174.407 178.625 176.754 179.867C194.655 189.36 201.905 211.226 199.327 230.543Z" fill="#F2F2F2"/>
<path d="M143.642 278.465C146.244 279.041 148.854 279.547 151.481 280H137.281C135.422 279.524 133.571 279.018 131.737 278.465C127.704 277.268 123.733 275.894 119.824 274.344C104.145 268.096 89.7021 258.718 78.7752 246.238C73.4313 240.192 69.0674 233.423 65.8278 226.153C62.315 217.937 60.0825 209.278 59.2008 200.45C57.2206 182.338 59.2411 163.726 63.0153 145.936C66.9103 127.498 73.1976 109.589 81.7334 92.6191C82.7598 90.5853 83.8213 88.5643 84.9177 86.556C84.9931 86.3907 85.1073 86.2439 85.2515 86.1269C85.3958 86.0098 85.5662 85.9256 85.75 85.8806C86.123 85.812 86.5096 85.8865 86.8249 86.0879C87.2034 86.2941 87.4841 86.6304 87.6089 87.0275C87.7338 87.4245 87.6933 87.8519 87.4958 88.2215C78.695 104.52 72.0237 121.778 67.6301 139.612C63.3306 157.011 60.8898 175.216 61.7221 193.106C62.5142 209.821 67.1132 226.261 77.5468 239.93C87.0755 252.409 100.233 262.248 114.789 268.948C124.002 273.134 133.68 276.326 143.642 278.465Z" fill="white"/>
<path d="M174.806 280H170.619C170.151 279.493 169.698 278.979 169.254 278.465C159.718 267.462 153.258 254.354 150.471 240.352C147.087 222.878 149.719 204.834 157.979 188.892C160.283 184.422 162.999 180.153 166.093 176.136C167.192 176.359 168.276 176.612 169.342 176.919C161.203 187.16 155.728 199.084 153.364 211.717C151.256 223.555 151.957 235.69 155.416 247.237C158.875 258.785 165.005 269.454 173.359 278.465C173.828 278.979 174.313 279.493 174.806 280Z" fill="white"/>
<path d="M551.945 266.948C552.553 271.471 554.789 275.609 557.173 279.595C557.252 279.731 557.333 279.864 557.417 280H582.202C582.703 279.877 583.198 279.741 583.691 279.595C586.49 278.786 589.133 277.551 591.517 275.939C600.635 269.7 604.144 257.912 602.559 247.349C601.574 240.786 598.541 234.085 592.634 230.551C589.427 228.696 585.601 228.059 581.92 228.768C581.826 228.785 581.733 228.805 581.637 228.823C580.105 229.104 578.653 229.69 577.376 230.543C576.1 231.395 575.028 232.494 574.231 233.767C571.415 238.517 573.092 244.401 574.476 249.688C575.856 254.975 576.605 261.302 572.599 265.202C573.186 263.571 573.306 261.821 572.945 260.132C572.584 258.444 571.756 256.876 570.546 255.592C569.336 254.308 567.787 253.352 566.06 252.825C564.332 252.297 562.488 252.215 560.716 252.589C560.426 252.647 560.14 252.714 559.859 252.795C559.178 252.985 558.522 253.245 557.903 253.573C553.178 256.079 551.265 261.849 551.945 266.948Z" fill="#F2F2F2"/>
<path d="M566.642 279.595C565.955 279.747 565.266 279.88 564.573 280H568.32C568.811 279.874 569.3 279.741 569.784 279.595C570.848 279.279 571.896 278.916 572.928 278.507C577.112 276.894 580.827 274.35 583.761 271.09C585.172 269.494 586.323 267.707 587.178 265.789C588.105 263.62 588.695 261.335 588.927 259.005C589.352 254.189 589.013 249.339 587.92 244.618C586.892 239.752 585.233 235.025 582.98 230.547C582.71 230.01 582.429 229.477 582.14 228.947C582.12 228.903 582.09 228.864 582.052 228.833C582.014 228.802 581.969 228.78 581.92 228.768C581.822 228.75 581.72 228.77 581.637 228.823C581.537 228.877 581.463 228.966 581.43 229.071C581.397 229.176 581.407 229.289 581.46 229.386C583.782 233.687 585.543 238.242 586.703 242.949C587.897 247.566 588.421 252.316 588.262 257.067C588.176 261.486 586.724 265.784 584.085 269.425C581.519 272.704 578.144 275.334 574.257 277.083C571.825 278.188 569.271 279.03 566.642 279.595Z" fill="white"/>
<path d="M558.417 280H559.522C559.645 279.866 559.765 279.731 559.882 279.595C562.399 276.691 564.104 273.232 564.839 269.536C565.732 264.925 565.038 260.162 562.858 255.955C562.249 254.775 561.533 253.649 560.716 252.589C560.426 252.647 560.14 252.714 559.859 252.795C562.007 255.498 563.452 258.645 564.076 261.979C564.632 265.103 564.447 268.306 563.534 271.353C562.621 274.401 561.003 277.217 558.799 279.595C558.675 279.731 558.547 279.866 558.417 280Z" fill="white"/>
<path d="M328.542 163.096H250.97L250.148 140.447C250.112 139.466 250.301 138.488 250.701 137.582C251.102 136.676 251.704 135.864 252.467 135.2C253.23 134.536 254.135 134.038 255.12 133.738C256.105 133.438 257.147 133.345 258.174 133.464L303.316 138.714H303.321C310.014 138.731 316.426 141.266 321.153 145.765C325.881 150.263 328.538 156.357 328.542 162.713V163.096Z" fill="#FFCA00"/>
<path d="M293.968 82.7568H239.865C239.146 82.7567 238.433 82.8911 237.769 83.1525C237.104 83.4139 236.5 83.7971 235.991 84.2803C235.482 84.7634 235.079 85.337 234.803 85.9684C234.528 86.5997 234.387 87.2763 234.387 87.9596V139.336C234.387 140.02 234.528 140.696 234.803 141.328C235.079 141.959 235.482 142.533 235.991 143.016C236.5 143.499 237.104 143.882 237.769 144.144C238.433 144.405 239.146 144.539 239.865 144.539H293.968C294.688 144.539 295.4 144.405 296.065 144.144C296.73 143.882 297.334 143.499 297.843 143.016C298.352 142.533 298.755 141.959 299.03 141.328C299.306 140.696 299.447 140.02 299.447 139.336V87.9596C299.447 87.2763 299.306 86.5997 299.03 85.9684C298.755 85.337 298.352 84.7634 297.843 84.2803C297.334 83.7971 296.73 83.4139 296.065 83.1525C295.4 82.8911 294.688 82.7566 293.968 82.7568Z" fill="#CCCCCC"/>
<path d="M281.783 121.175L256.239 125.898C254.724 126.177 253.154 125.873 251.874 125.054C250.595 124.235 249.709 122.967 249.413 121.529L247.449 111.954C247.156 110.515 247.475 109.024 248.338 107.809C249.201 106.594 250.536 105.753 252.05 105.471L277.594 100.747C279.11 100.469 280.679 100.772 281.959 101.592C283.239 102.411 284.124 103.678 284.421 105.117L286.385 114.692C286.678 116.131 286.358 117.621 285.496 118.837C284.633 120.052 283.298 120.893 281.783 121.175Z" fill="#E12023"/>
<path d="M276.673 109.862L257.178 113.467C256.822 113.533 256.452 113.462 256.151 113.269C255.85 113.076 255.642 112.778 255.572 112.439C255.503 112.101 255.578 111.75 255.781 111.464C255.984 111.178 256.298 110.98 256.655 110.914L276.149 107.309C276.506 107.243 276.875 107.314 277.176 107.507C277.478 107.7 277.686 107.998 277.755 108.337C277.825 108.676 277.75 109.027 277.547 109.313C277.344 109.599 277.029 109.796 276.673 109.862Z" fill="white"/>
<path d="M272.884 115.201L262.8 117.066C262.444 117.132 262.074 117.06 261.773 116.867C261.472 116.675 261.264 116.376 261.194 116.037C261.125 115.699 261.2 115.348 261.403 115.062C261.606 114.776 261.92 114.578 262.277 114.512L272.36 112.648C272.537 112.615 272.718 112.616 272.894 112.65C273.071 112.684 273.238 112.75 273.387 112.846C273.537 112.941 273.664 113.064 273.764 113.206C273.863 113.348 273.932 113.508 273.966 113.676C274.001 113.843 274 114.016 273.964 114.183C273.928 114.35 273.858 114.51 273.758 114.651C273.657 114.793 273.528 114.914 273.378 115.009C273.228 115.103 273.06 115.168 272.884 115.201Z" fill="white"/>
<path d="M299.447 87.9596V94.7882H234.387V87.9596C234.387 87.2763 234.528 86.5997 234.803 85.9684C235.079 85.337 235.482 84.7634 235.991 84.2803C236.5 83.7971 237.104 83.4139 237.769 83.1525C238.433 82.8911 239.146 82.7567 239.865 82.7568H293.968C294.688 82.7567 295.4 82.8911 296.065 83.1525C296.73 83.4139 297.334 83.7971 297.843 84.2803C298.352 84.7634 298.755 85.337 299.03 85.9684C299.306 86.5997 299.447 87.2763 299.447 87.9596Z" fill="#B3B3B3"/>
<path d="M429.366 96.9265C428.991 95.7751 428.354 94.716 427.501 93.8236C426.647 92.9313 425.598 92.2275 424.428 91.7618C423.257 91.296 421.993 91.0797 420.725 91.1281C419.456 91.1764 418.215 91.4883 417.087 92.0416L342.654 66.6819L339.376 84.3396L413.572 103.715C414.676 105.452 416.413 106.744 418.454 107.347C420.495 107.949 422.697 107.819 424.644 106.983C426.591 106.146 428.147 104.66 429.017 102.807C429.888 100.953 430.012 98.861 429.366 96.9265Z" fill="#FFB8B8"/>
<path opacity="0.2" d="M429.366 96.9265C428.991 95.7751 428.354 94.716 427.501 93.8236C426.647 92.9313 425.598 92.2275 424.428 91.7618C423.257 91.296 421.993 91.0797 420.725 91.1281C419.456 91.1764 418.215 91.4883 417.087 92.0416L342.654 66.6819L339.376 84.3396L413.572 103.715C414.676 105.452 416.413 106.744 418.454 107.347C420.495 107.949 422.697 107.819 424.644 106.983C426.591 106.146 428.147 104.66 429.017 102.807C429.888 100.953 430.012 98.861 429.366 96.9265Z" fill="black"/>
<path d="M355.866 69.8996L348.837 87.337C348.637 87.8332 348.327 88.2825 347.927 88.6546C347.528 89.0266 347.049 89.3125 346.523 89.4928C345.996 89.6731 345.435 89.7436 344.878 89.6995C344.32 89.6554 343.779 89.4977 343.292 89.2372L326.21 80.107C323.543 79.1208 321.396 77.1705 320.241 74.6839C319.086 72.1972 319.016 69.377 320.047 66.8415C321.078 64.3061 323.125 62.2623 325.741 61.1582C328.356 60.0542 331.326 59.9799 333.999 60.9517L353.074 64.9692C353.62 65.0844 354.134 65.31 354.58 65.6307C355.026 65.9513 355.394 66.3595 355.659 66.8274C355.924 67.2953 356.079 67.8119 356.115 68.3421C356.151 68.8723 356.066 69.4035 355.866 69.8996Z" fill="#FFCA00"/>
<path d="M435.225 113.073L408.554 124.585L412.056 137.103C418.818 161.277 420.612 186.462 417.341 211.28L436.841 215.148L453.005 176.006L447.348 131.492L435.225 113.073Z" fill="#FFCA00"/>
<path d="M487.556 171.017C470.033 171.017 455.752 183.114 455.059 198.263H520.053C519.36 183.114 505.08 171.017 487.556 171.017Z" fill="#E12023"/>
<path d="M473.915 173.628C473.003 105.246 431.992 111.537 431.992 111.537C431.992 111.537 432.759 132.822 433.128 133.484C459.262 180.438 416.131 235.486 361.23 225.359C360.195 225.168 359.201 224.974 358.247 224.778C351.291 223.398 345.149 219.555 341.071 214.028C336.992 208.502 335.284 201.708 336.294 195.028C341.702 153.787 314.803 154.516 314.803 154.516H275.471L255.045 137.059C254.324 136.443 253.455 136.004 252.514 135.781C251.573 135.557 250.588 135.556 249.647 135.777C248.705 135.998 247.835 136.435 247.112 137.049C246.389 137.664 245.836 138.437 245.501 139.301L242.873 146.074C242.873 146.074 204.079 149.912 207.312 185.983H219.306C219.277 187.008 219.32 188.034 219.435 189.053L308.944 188.362C314.191 188.322 318.822 192.359 318.844 197.341C318.849 198.554 318.597 199.756 318.102 200.874C317.607 201.993 316.88 203.005 315.963 203.85C315.047 204.695 313.961 205.356 312.769 205.793C311.578 206.23 310.305 206.435 309.029 206.395L294.598 205.938C290.153 224.741 301.064 237.405 313.086 245.367C324.404 252.756 337.836 256.673 351.57 256.592H390.774C441.691 256.592 450.581 215.915 450.581 215.915C477.252 205.17 473.915 173.628 473.915 173.628Z" fill="#E12023"/>
<path d="M485.132 278.849C510.239 278.849 530.593 259.52 530.593 235.678C530.593 211.835 510.239 192.507 485.132 192.507C460.024 192.507 439.67 211.835 439.67 235.678C439.67 259.52 460.024 278.849 485.132 278.849Z" fill="#E12023"/>
<path d="M485.131 246.259C491.285 246.259 496.274 241.522 496.274 235.678C496.274 229.834 491.285 225.097 485.131 225.097C478.978 225.097 473.989 229.834 473.989 235.678C473.989 241.522 478.978 246.259 485.131 246.259Z" fill="white"/>
<path d="M255.602 278.849C284.504 278.849 307.933 256.6 307.933 229.154C307.933 201.709 284.504 179.46 255.602 179.46C226.7 179.46 203.271 201.709 203.271 229.154C203.271 256.6 226.7 278.849 255.602 278.849Z" fill="#E12023"/>
<path d="M255.602 241.334C262.686 241.334 268.428 235.881 268.428 229.154C268.428 222.427 262.686 216.974 255.602 216.974C248.518 216.974 242.776 222.427 242.776 229.154C242.776 235.881 248.518 241.334 255.602 241.334Z" fill="white"/>
<path d="M408.63 127.986L399.034 103.235C398.534 101.945 398.306 100.574 398.364 99.2009C398.422 97.8274 398.764 96.4781 399.371 95.2302C399.978 93.9822 400.838 92.8601 401.901 91.9277C402.965 90.9953 404.211 90.2709 405.57 89.7961L433.081 80.1785C435.471 79.3427 438.011 78.9622 440.556 79.0586C443.101 79.155 445.601 79.7265 447.914 80.7404C450.226 81.7543 452.306 83.1908 454.033 84.9679C455.761 86.745 457.103 88.8279 457.983 91.0976C458.777 93.1347 459.182 95.2898 459.18 97.4619C459.17 100.22 458.513 102.941 457.256 105.428C456 107.914 454.176 110.104 451.916 111.837C450.284 113.08 448.45 114.062 446.485 114.745L408.63 127.986Z" fill="#E12023"/>
<path d="M458.776 97.4619C458.774 100.164 458.134 102.831 456.903 105.267C455.672 107.702 453.882 109.845 451.664 111.537C448.261 110.685 445.094 109.139 442.384 107.007C439.674 104.875 437.485 102.208 435.97 99.1919C434.455 96.1754 433.649 92.8818 433.61 89.54C433.571 86.1981 434.298 82.8883 435.742 79.8405C438.514 79.268 441.386 79.2924 444.147 79.9118C446.908 80.5313 449.488 81.73 451.697 83.4201C453.906 85.1102 455.689 87.2486 456.914 89.6785C458.139 92.1084 458.775 94.7679 458.776 97.4619Z" fill="#FFCA00"/>
<path d="M214.182 190.972C220.431 190.972 225.496 185.13 225.496 177.925C225.496 170.719 220.431 164.877 214.182 164.877C207.933 164.877 202.867 170.719 202.867 177.925C202.867 185.13 207.933 190.972 214.182 190.972Z" fill="#FFCA00"/>
<path d="M363.749 224.109H373.657L378.372 199.705L363.747 199.706L363.749 224.109Z" fill="#FFB8B8"/>
<path d="M361.221 221.037L380.734 221.036H380.735C382.368 221.036 383.985 221.342 385.494 221.935C387.002 222.528 388.373 223.398 389.528 224.495C390.683 225.591 391.599 226.893 392.224 228.326C392.849 229.758 393.17 231.294 393.17 232.845V233.229L361.222 233.23L361.221 221.037Z" fill="#2F2E41"/>
<path d="M375.25 214.093C375.134 214.093 375.018 214.088 374.902 214.077L361.19 213.129C360.635 213.08 360.1 212.911 359.625 212.635C359.15 212.358 358.748 211.982 358.451 211.535C358.153 211.088 357.968 210.582 357.909 210.056C357.85 209.53 357.919 208.998 358.111 208.502L376.462 169.349C376.593 169 376.647 168.629 376.62 168.259C376.592 167.889 376.485 167.529 376.304 167.201C376.123 166.869 375.87 166.577 375.562 166.344C375.254 166.111 374.898 165.943 374.517 165.85C365.887 163.708 343.747 158.004 324.581 151.331C316.369 148.472 311.198 144.34 309.21 139.05C306.588 132.076 310.466 125.715 310.632 125.449L310.763 125.24L328.797 126.796L348.349 128.375L391.194 150.193C394.784 152.037 397.511 155.097 398.832 158.764C400.153 162.432 399.971 166.437 398.321 169.982L378.568 212.046C378.282 212.655 377.817 213.173 377.228 213.536C376.639 213.899 375.952 214.093 375.25 214.093Z" fill="#2F2E41"/>
<path d="M331.933 49.3348C342.896 49.3348 351.783 40.8953 351.783 30.4847C351.783 20.074 342.896 11.6345 331.933 11.6345C320.97 11.6345 312.083 20.074 312.083 30.4847C312.083 40.8953 320.97 49.3348 331.933 49.3348Z" fill="#FFB8B8"/>
<path d="M358.091 226.411H368L372.714 202.008L358.09 202.008L358.091 226.411Z" fill="#FFB8B8"/>
<path d="M355.563 223.339L375.077 223.339H375.077C376.71 223.339 378.327 223.644 379.836 224.237C381.345 224.831 382.716 225.701 383.871 226.797C385.025 227.894 385.941 229.196 386.566 230.628C387.191 232.061 387.513 233.597 387.513 235.147V235.531L355.564 235.532L355.563 223.339Z" fill="#2F2E41"/>
<path d="M369.592 216.395C369.477 216.395 369.361 216.39 369.244 216.379L355.532 215.431C354.977 215.382 354.442 215.213 353.967 214.937C353.493 214.66 353.091 214.284 352.793 213.837C352.496 213.39 352.311 212.884 352.252 212.358C352.193 211.832 352.262 211.3 352.453 210.804L370.805 171.651C370.936 171.302 370.99 170.931 370.962 170.561C370.935 170.192 370.827 169.831 370.646 169.503C370.466 169.171 370.213 168.879 369.905 168.646C369.597 168.413 369.241 168.245 368.859 168.152C360.23 166.01 338.089 160.307 318.923 153.633C310.712 150.774 305.54 146.642 303.552 141.352C300.931 134.378 304.809 128.018 304.975 127.751L305.105 127.542L323.14 129.098L342.691 130.678L385.537 152.495C389.127 154.339 391.854 157.399 393.175 161.067C394.496 164.734 394.313 168.739 392.664 172.284L372.911 214.348C372.625 214.957 372.159 215.475 371.571 215.838C370.982 216.201 370.294 216.395 369.592 216.395Z" fill="#2F2E41"/>
<path d="M338.055 60.0236L317.042 53.1162C317.042 53.1162 303.85 62.7404 310.188 86.6157C313.496 98.9363 312.532 111.941 307.44 123.701C306.826 125.156 306.12 126.573 305.323 127.946C305.323 127.946 328.761 154.808 350.582 134.853L342.096 96.0952C342.096 96.0952 355.432 70.3846 338.055 60.0236Z" fill="#FFCA00"/>
<path d="M334.398 49.9758C331.572 45.9601 329.343 40.3918 332.453 36.571C335.524 32.7995 341.58 33.3552 346.282 31.6863C352.832 29.3618 356.63 22.0549 355.446 15.5111C354.261 8.96726 348.729 3.54263 342.139 1.32305C335.55 -0.896537 328.118 -0.174676 321.665 2.38131C313.721 5.52776 306.906 11.6144 304.049 19.3245C301.191 27.0346 302.719 36.292 308.647 42.2182C315.003 48.5717 324.977 50.2649 334.205 50.1621" fill="#2F2E41"/>
<path d="M315.933 15.7211C312.373 18.4732 306.941 17.2509 303.12 14.8355C299.298 12.4202 296.198 8.98099 292.063 7.08729C284.774 3.74878 275.96 5.96812 268.866 9.66612C261.772 13.3641 255.483 18.473 247.989 21.375C240.495 24.2769 230.933 24.4204 225.259 18.9408C223.862 22.7827 223.748 26.9401 224.932 30.8459C226.115 34.7517 228.539 38.2155 231.873 40.7649C235.206 43.3142 239.286 44.8249 243.557 45.0907C247.828 45.3566 252.081 44.3647 255.736 42.2504C263.947 37.5009 268.482 27.5426 277.692 24.9211C282.788 23.4705 288.26 24.6388 293.41 25.9043C298.561 27.1697 303.932 28.5371 309.129 27.4598C314.327 26.3825 319.189 21.9469 318.528 16.934L315.933 15.7211Z" fill="#2F2E41"/>
<path d="M428.379 96.1587C427.856 95.0602 427.087 94.0837 426.124 93.2982C425.161 92.5127 424.029 91.9371 422.806 91.6121C421.584 91.2871 420.302 91.2206 419.049 91.4171C417.797 91.6137 416.605 92.0687 415.558 92.7499L338.399 76.3049L337.44 94.2118L413.587 104.746C414.908 106.341 416.8 107.419 418.904 107.778C421.007 108.136 423.176 107.75 424.999 106.691C426.822 105.633 428.174 103.976 428.796 102.035C429.419 100.094 429.271 98.0028 428.379 96.1587Z" fill="#FFB8B8"/>
<path d="M351.928 77.9499L347.218 96.0776C347.084 96.5934 346.835 97.0757 346.487 97.4917C346.139 97.9076 345.701 98.2475 345.202 98.4881C344.703 98.7287 344.156 98.8644 343.597 98.8859C343.038 98.9075 342.48 98.8143 341.963 98.6129L323.825 91.554C321.048 90.8894 318.662 89.2059 317.191 86.873C315.72 84.5401 315.284 81.7483 315.978 79.1101C316.672 76.472 318.44 74.2031 320.893 72.8012C323.347 71.3993 326.286 70.979 329.065 71.6324L348.517 73.3842C349.074 73.4346 349.613 73.5983 350.097 73.8642C350.581 74.1302 351 74.4921 351.323 74.9254C351.647 75.3587 351.868 75.8531 351.973 76.375C352.077 76.897 352.062 77.4341 351.928 77.9499V77.9499Z" fill="#FFCA00"/>
<path d="M419.465 110.386C422.59 110.386 425.122 107.981 425.122 105.014C425.122 102.047 422.59 99.6416 419.465 99.6416C416.341 99.6416 413.808 102.047 413.808 105.014C413.808 107.981 416.341 110.386 419.465 110.386Z" fill="#FFCA00"/>
<path d="M670 279.232C669.999 279.436 669.914 279.631 669.763 279.774C669.611 279.918 669.406 279.999 669.192 280H0.808203C0.593854 280 0.388284 279.919 0.236716 279.775C0.0851491 279.631 0 279.436 0 279.232C0 279.029 0.0851491 278.834 0.236716 278.69C0.388284 278.546 0.593854 278.465 0.808203 278.465H669.192C669.406 278.465 669.611 278.547 669.763 278.69C669.914 278.834 669.999 279.029 670 279.232Z" fill="#E12023"/>
</g>
<defs>
<clipPath id="clip0_1084_324">
<rect width="670" height="280" fill="white"/>
</clipPath>
</defs>
</svg>
